<svg width="24" height="24" viewBox="0 0 48 48" fill="none" xmlns="http://www.w3.org/2000/svg">
<circle cx="24" cy="24" r="22.5" fill="white" stroke="#8C552D" stroke-width="3"/>
<path d="M20.4311 25.4361C20.4311 25.7074 20.3504 25.9727 20.1993 26.1983C20.0482 26.424 19.8334 26.5998 19.5821 26.7037C19.3308 26.8075 19.0542 26.8347 18.7875 26.7818C18.5207 26.7288 18.2756 26.5982 18.0833 26.4063C17.8909 26.2144 17.7599 25.9699 17.7069 25.7037C17.6538 25.4376 17.681 25.1617 17.7851 24.911C17.8892 24.6603 18.0655 24.446 18.2917 24.2952C18.5178 24.1445 18.7838 24.064 19.0558 24.064C19.4205 24.064 19.7703 24.2086 20.0283 24.4659C20.2862 24.7232 20.4311 25.0722 20.4311 25.4361ZM29.1414 24.064C28.8694 24.064 28.6035 24.1445 28.3773 24.2952C28.1511 24.446 27.9749 24.6603 27.8708 24.911C27.7667 25.1617 27.7394 25.4376 27.7925 25.7037C27.8456 25.9699 27.9766 26.2144 28.1689 26.4063C28.3612 26.5982 28.6063 26.7288 28.8731 26.7818C29.1399 26.8347 29.4164 26.8075 29.6677 26.7037C29.919 26.5998 30.1338 26.424 30.2849 26.1983C30.436 25.9727 30.5167 25.7074 30.5167 25.4361C30.5167 25.0722 30.3718 24.7232 30.1139 24.4659C29.856 24.2086 29.5061 24.064 29.1414 24.064ZM36.018 15.2942V24.9787C36.018 31.0273 30.6657 35.9553 24.0986 35.9553C17.5315 35.9553 12.1792 31.0273 12.1792 24.9787V15.2942C12.1798 14.9328 12.2877 14.5797 12.4892 14.2795C12.6908 13.9792 12.9769 13.7452 13.3116 13.607C13.6463 13.4688 14.0145 13.4325 14.3698 13.5029C14.7251 13.5732 15.0516 13.7469 15.308 14.0022L17.2793 15.9688C18.1481 15.4146 19.0839 14.9727 20.0643 14.6539L20.2477 14.5967C22.7535 13.8043 25.4436 13.8043 27.9494 14.5967L28.1328 14.6539C29.1132 14.9727 30.0491 15.4146 30.9178 15.9688L32.8891 14.0022C33.1456 13.7469 33.472 13.5732 33.8273 13.5029C34.1826 13.4325 34.5508 13.4688 34.8855 13.607C35.2202 13.7452 35.5064 13.9792 35.7079 14.2795C35.9094 14.5797 36.0173 14.9328 36.018 15.2942ZM34.1842 15.2942L31.6743 17.8097C31.5161 17.9638 31.308 18.0565 31.0874 18.0712C30.8667 18.0859 30.6481 18.0215 30.4709 17.8897C29.9146 17.4759 29.3151 17.1232 28.6829 16.8378V19.4904C28.6829 19.733 28.5864 19.9657 28.4144 20.1372C28.2425 20.3088 28.0092 20.4051 27.7661 20.4051C27.5229 20.4051 27.2897 20.3088 27.1177 20.1372C26.9458 19.9657 26.8492 19.733 26.8492 19.4904V16.186C26.2481 16.0277 25.6347 15.9206 25.0154 15.8659V19.4904C25.0154 19.733 24.9189 19.9657 24.7469 20.1372C24.575 20.3088 24.3417 20.4051 24.0986 20.4051C23.8554 20.4051 23.6222 20.3088 23.4502 20.1372C23.2783 19.9657 23.1817 19.733 23.1817 19.4904V15.8659C22.5625 15.9206 21.949 16.0277 21.3479 16.186V19.4904C21.3479 19.733 21.2514 19.9657 21.0794 20.1372C20.9075 20.3088 20.6742 20.4051 20.4311 20.4051C20.1879 20.4051 19.9547 20.3088 19.7827 20.1372C19.6108 19.9657 19.5142 19.733 19.5142 19.4904V16.8378C18.882 17.1232 18.2826 17.4759 17.7263 17.8897C17.549 18.0215 17.3304 18.0859 17.1098 18.0712C16.8892 18.0565 16.6811 17.9638 16.5229 17.8097L14.0129 15.2942V24.9787C14.0129 29.7467 18.0472 33.6685 23.1817 34.0915V31.759L21.6116 30.204C21.4653 30.0263 21.3906 29.8007 21.4019 29.571C21.4132 29.3414 21.5098 29.1241 21.6727 28.9616C21.8357 28.799 22.0534 28.7027 22.2836 28.6914C22.5138 28.6801 22.74 28.7547 22.9181 28.9005L24.0986 30.0897L25.2791 28.9005C25.4572 28.7547 25.6834 28.6801 25.9135 28.6914C26.1437 28.7027 26.3615 28.799 26.5244 28.9616C26.6874 29.1241 26.7839 29.3414 26.7952 29.571C26.8065 29.8007 26.7318 30.0263 26.5856 30.204L25.0154 31.759V34.0915C30.15 33.6685 34.1842 29.7467 34.1842 24.9787V15.2942Z" fill="#8C552D"/>
</svg>
