<svg width="41" height="41" viewBox="0 0 41 41" fill="none" xmlns="http://www.w3.org/2000/svg">
<circle cx="20.5" cy="20.5" r="19.5" fill="white" stroke="black" stroke-width="2"/>
<path d="M10.5 7.5C15.5 4.66667 27.4 1.9 35 13.5C39 20 35 27.5 32 30.5C28 35 23 30 24.5 27.5C24.9397 26.7672 25.5083 25.7336 26.0547 24.5M9 8.5L6 12.5C6.5 13.6667 7.7 15.5 10.5 13.5C14 11 26 8 27.5 13.5C28.5603 17.3878 27.3721 21.5253 26.0547 24.5M7 12.5C16.3333 8.83333 33.5 7.2 27.5 30M29 10L32 24.5M8.5 13.5C11.6667 12 18.9 9.9 22.5 13.5C27 18 26.1093 21.5 26.0547 24.5M5 24.5C5.33333 26.6667 7.2 31.5 12 33.5" stroke="#FFBC57" stroke-width="7" stroke-linecap="round"/>
<circle cx="20.5" cy="20.5" r="19.5" stroke="white" stroke-width="2"/>
</svg>
