<svg width="41" height="41" viewBox="0 0 41 41" fill="none" xmlns="http://www.w3.org/2000/svg">
<circle cx="20.5" cy="20.5" r="19.5" transform="rotate(-180 20.5 20.5)" fill="white" stroke="black" stroke-width="2"/>
<path d="M33.524 30.4688C29.4277 34.4997 18.6492 40.2521 8.30587 31.0144C2.75984 25.7711 2.9569 21.1231 5.07822 17.4489C7.77724 12.067 11.7974 15.0673 12.7033 18.448C12.9245 19.2735 13.0915 19.8969 13.1262 21.9582M34.714 29.1147L35.9988 26.1822C35.2139 25.1847 34.158 22.0167 31.9711 24.6733C29.2374 27.994 18.4227 33.9976 15.5503 29.0732C13.5199 25.5924 13.1809 25.2111 13.1262 21.9582M35.2571 25.3457C27.1908 31.3031 11.3253 40.351 11.2197 16.775M15.0073 32.8422L8.35664 19.6127M33.9029 24.1556C31.2324 26.4241 25.394 31.0369 20.1558 28.8745C14.2734 26.4461 14.1268 23.7606 13.1262 21.9582M34.4366 12.6246C33.5539 10.618 30.4999 6.43252 25.3458 5.743" stroke="#3D301E" stroke-width="7" stroke-linecap="round"/>
<path d="M23.5458 35.7307C19.9178 36.3577 11.5646 35.8352 7.17581 28.729M27.5364 6.19131C25.4204 5.37791 19.6689 4.26182 13.5905 6.30463" stroke="#1B1610" stroke-width="7" stroke-linecap="round"/>
<circle cx="20.5" cy="20.5" r="19.5" transform="rotate(-180 20.5 20.5)" stroke="white" stroke-width="2"/>
</svg>
