<svg width="45" height="45" viewBox="0 0 45 45" fill="none" xmlns="http://www.w3.org/2000/svg">
<circle cx="22.5" cy="22.5" r="19.5" transform="rotate(-180 22.5 22.5)" fill="#52473A" stroke="black" stroke-width="2"/>
<path d="M20.8266 38.7535C15.2876 37.2214 4.9167 30.7632 7.74513 17.1867C9.5129 9.76212 13.6367 7.60879 17.8793 7.60879C23.8897 7.25524 23.3015 12.237 20.8266 14.7119C20.2223 15.3162 19.7659 15.7725 17.9982 16.8332M22.5944 39.107L25.7764 38.7535C26.2478 37.575 28.4634 35.0765 25.0692 34.5109C20.8266 33.8037 10.22 27.4398 13.0484 22.49C15.0477 18.9912 15.2084 18.507 17.9982 16.8332M26.1299 37.6928C16.9375 33.6859 1.16904 24.4699 21.5337 12.5905M9.5129 23.9043L17.6446 11.5299M26.4835 35.9251C23.1836 34.7466 16.2697 31.9967 15.5233 26.3791C14.6851 20.0706 16.9375 18.601 17.9982 16.8332M36.7365 30.6218C38.0329 28.854 40 19.2979 36.7365 15.2979" stroke="#2C2319" stroke-width="7" stroke-linecap="round"/>
<path d="M17.5114 37.6758C10.7143 35.3708 5.00064 31.2523 6.49988 20.798C6.54721 20.468 6.93868 18.6347 6.99989 18.298M35.737 14.0893C32.4998 10.2981 27.9998 6.79807 19.9998 6.79807M6.99988 16.798C8.99989 18.798 8.02138 26.5352 11.9999 30.798C18.9997 38.298 25 39.7979 22 39.298" stroke="black" stroke-width="7" stroke-linecap="round"/>
<circle cx="22.5" cy="22.5" r="19.5" transform="rotate(-180 22.5 22.5)" stroke="white" stroke-width="2"/>
</svg>
