<svg width="27" height="38" viewBox="0 0 27 38" fill="none" xmlns="http://www.w3.org/2000/svg">
<mask id="path-1-outside-1_177_127" maskUnits="userSpaceOnUse" x="0" y="3" width="27" height="35" fill="black">
<rect fill="white" y="3" width="27" height="35"/>
<path fill-rule="evenodd" clip-rule="evenodd" d="M21.92 24.333C23.831 22.2796 25 19.5263 25 16.5C25 10.1487 19.8513 5 13.5 5C7.14873 5 2 10.1487 2 16.5C2 19.5263 3.16899 22.2796 5.08005 24.333L12.6891 34.8764C13.0883 35.4295 13.9117 35.4295 14.3109 34.8764L21.92 24.333Z"/>
</mask>
<path fill-rule="evenodd" clip-rule="evenodd" d="M21.92 24.333C23.831 22.2796 25 19.5263 25 16.5C25 10.1487 19.8513 5 13.5 5C7.14873 5 2 10.1487 2 16.5C2 19.5263 3.16899 22.2796 5.08005 24.333L12.6891 34.8764C13.0883 35.4295 13.9117 35.4295 14.3109 34.8764L21.92 24.333Z" fill="white"/>
<path d="M21.92 24.333L20.4559 22.9704C20.3994 23.0311 20.3467 23.0953 20.2982 23.1626L21.92 24.333ZM5.08005 24.333L6.70182 23.1626C6.65328 23.0953 6.60059 23.0311 6.54408 22.9704L5.08005 24.333ZM12.6891 34.8764L14.3109 33.706L12.6891 34.8764ZM14.3109 34.8764L12.6891 33.706H12.6891L14.3109 34.8764ZM23 16.5C23 19.001 22.0362 21.2725 20.4559 22.9704L23.384 25.6955C25.6259 23.2867 27 20.0516 27 16.5H23ZM13.5 7C18.7467 7 23 11.2533 23 16.5H27C27 9.04416 20.9558 3 13.5 3V7ZM4 16.5C4 11.2533 8.25329 7 13.5 7V3C6.04416 3 0 9.04416 0 16.5H4ZM6.54408 22.9704C4.96384 21.2725 4 19.001 4 16.5H0C0 20.0516 1.37414 23.2867 3.61602 25.6956L6.54408 22.9704ZM14.3109 33.706L6.70182 23.1626L3.45828 25.5034L11.0673 36.0468L14.3109 33.706ZM12.6891 33.706C13.0882 33.1529 13.9117 33.1529 14.3109 33.706L11.0673 36.0468C12.2648 37.706 14.7353 37.706 15.9327 36.0468L12.6891 33.706ZM20.2982 23.1626L12.6891 33.706L15.9327 36.0468L23.5417 25.5034L20.2982 23.1626Z" fill="black" mask="url(#path-1-outside-1_177_127)"/>
<path d="M13 16C12.3333 17.1667 10.3 19.3 7.5 18.5" stroke="black" stroke-width="2" stroke-linecap="round"/>
<path d="M13 16C13.6667 17.1667 15.7 19.3 18.5 18.5" stroke="black" stroke-width="2" stroke-linecap="round"/>
<path d="M12.5 15.5H13.5" stroke="black" stroke-width="2" stroke-linecap="round"/>
<circle cx="8.5" cy="13.5" r="1.5" fill="black"/>
<circle cx="17.5" cy="13.5" r="1.5" fill="black"/>
<path d="M4.85937 2.10188L7.1393 2.99774L9.41923 3.89359L4.1311 6.9467L4.85937 2.10188Z" fill="white"/>
<path d="M4.50004 7.99999C4.33337 6.83332 4.10004 4.09999 4.50004 2.49999C4.90004 0.899988 8.00001 3.16665 9.5 4.49999" stroke="black" stroke-width="2"/>
<path d="M21.7753 2.10188L19.4953 2.99774L17.2154 3.89359L22.5035 6.9467L21.7753 2.10188Z" fill="white"/>
<path d="M22.2791 7.99999C22.4458 6.83332 22.6791 4.09999 22.2791 2.49999C21.8791 0.899988 18.7792 3.16665 17.2792 4.49999" stroke="black" stroke-width="2"/>
<path d="M14.2998 31.9344C13.8998 32.4674 13.1002 32.4674 12.7002 31.9344L9.07194 27.1003C8.57718 26.4411 9.04751 25.5 9.87172 25.5L17.1283 25.5C17.9525 25.5 18.4228 26.4411 17.9281 27.1003L14.2998 31.9344Z" fill="black"/>
</svg>
